<svg width="60" height="59" viewBox="0 0 60 59" fill="none" xmlns="http://www.w3.org/2000/svg">
<path fill-rule="evenodd" clip-rule="evenodd" d="M22.6684 0C17.4033 0 13.135 4.26828 13.135 9.5334V11.3876C9.96745 10.56 6.45697 11.3872 3.97469 13.8694C0.251656 17.5925 0.251656 23.6287 3.97469 27.3517L5.28572 28.6628C2.46072 30.3174 0.563477 33.3846 0.563477 36.8949C0.563477 42.16 4.83175 46.4283 10.0969 46.4283H11.9509C11.1233 49.5959 11.9505 53.1064 14.4327 55.5885C18.1558 59.3115 24.192 59.3115 27.9151 55.5885L31.8255 51.678C35.2752 48.2284 36.8864 43.6363 36.659 39.1196L42.6698 45.1303C46.3928 48.8533 52.4292 48.8533 56.1524 45.1303C59.8756 41.4072 59.8756 35.371 56.1524 31.6481L54.8418 30.3372C57.6656 28.6826 59.5635 25.6154 59.5635 22.1051C59.5635 16.84 55.2945 12.5717 50.0299 12.5717H48.1757C49.0035 9.40397 48.1762 5.89349 45.6939 3.41122C41.971 -0.31182 35.9348 -0.31182 32.2117 3.41122L28.3011 7.32183C24.8515 10.7715 23.2403 15.3634 23.4677 19.8801L17.457 13.8694C17.4419 13.8545 17.427 13.8395 17.4119 13.8246V9.5334C17.4119 6.63029 19.7653 4.27686 22.6684 4.27686C25.0265 4.27686 27.0218 5.82944 27.688 7.96809C27.8855 7.74858 28.0898 7.53306 28.301 7.32183L30.9006 4.72225C29.2459 1.89724 26.1788 0 22.6684 0ZM45.7387 16.8486C45.7238 16.8635 45.709 16.8786 45.6939 16.8935L39.6834 22.904C43.9236 22.6907 48.2299 24.0975 51.5949 27.1247C53.7339 26.4584 55.2871 24.463 55.2871 22.1051C55.2871 19.202 52.9336 16.8486 50.0299 16.8486H45.7387ZM14.3878 42.1514C14.4027 42.1363 14.4177 42.1213 14.4327 42.1063L20.4432 36.0957C16.2032 36.3091 11.8969 34.9022 8.53157 31.8753C6.39292 32.5416 4.84018 34.5369 4.84018 36.8949C4.84018 39.798 7.19377 42.1514 10.0969 42.1514H14.3878ZM8.36767 31.7259C8.20452 31.5752 8.04372 31.4206 7.8853 31.2622V31.2623C8.04372 31.4208 8.20452 31.5752 8.36767 31.7259ZM37.4584 59C33.9479 59 30.8807 57.1026 29.2261 54.2776L31.8255 51.678C32.0369 51.4668 32.2412 51.2513 32.4387 51.0318C33.1049 53.1704 35.1002 54.7231 37.4584 54.7231C40.3615 54.7231 42.7149 52.3697 42.7149 49.4666V45.1754C43.9468 46.3912 45.4275 47.2035 46.9918 47.6123V49.4666C46.9918 54.7317 42.7235 59 37.4584 59ZM42.6698 6.43533C40.6169 4.38262 37.2887 4.38262 35.2358 6.43533L31.3252 10.3459C26.9514 14.72 26.561 21.569 30.1543 26.3848L42.6698 13.8693C44.7227 11.8164 44.7227 8.48819 42.6698 6.43533ZM53.1274 42.1062C55.1806 40.0533 55.1806 36.7251 53.1274 34.6722L49.2173 30.7616C44.8434 26.3877 37.9941 25.9974 33.1784 29.5907L45.6939 42.1062C47.7468 44.159 51.0757 44.159 53.1274 42.1062ZM24.8908 52.5644C22.8379 54.6172 19.5097 54.6172 17.4569 52.5644C15.4042 50.5115 15.4042 47.1833 17.4569 45.1304L29.9724 32.6149C33.5657 37.4307 33.1753 44.2799 28.8014 48.6538L24.8908 52.5644ZM6.99881 16.8935C4.9461 18.9464 4.9461 22.2746 6.99881 24.3275L10.9094 28.2381C15.2835 32.612 22.1325 33.0023 26.9482 29.409L14.4327 16.8935C12.3799 14.8408 9.05166 14.8408 6.99881 16.8935Z" fill="#3D3A2C"/>
</svg>
