<svg width="14" height="17" viewBox="0 0 14 17" fill="none" xmlns="http://www.w3.org/2000/svg">
<path d="M0.988608 5.39094C0.988608 8.24064 3.37221 9.28747 6.39638 9.86904L7.15326 10.0143C8.95529 10.3633 9.76949 10.7996 9.76949 11.7301C9.76949 12.6606 8.95529 13.3875 7.26958 13.3875C5.58218 13.3875 4.21675 12.6896 3.83747 10.5959L0.464355 11.4683C0.959955 14.4924 3.48852 16.179 7.26958 16.179C10.9326 16.179 13.3179 14.4635 13.3179 11.4393C13.3179 8.41494 10.8753 7.60091 7.61852 6.96118L6.86164 6.81571C5.34955 6.52492 4.53536 6.11782 4.53536 5.15831C4.53536 4.28595 5.29224 3.73338 6.68801 3.73338C8.08379 3.73338 9.07161 4.31495 9.42055 5.88519L12.7364 4.86753C12.0385 2.54124 9.91616 0.941833 6.68801 0.941833C3.2559 0.941833 0.988608 2.54124 0.988608 5.39094Z" fill="#5BD0F4"/>
</svg>
